<svg xmlns="http://www.w3.org/2000/svg" width="338" height="158" viewBox="0 0 338 158">
<defs>
<clipPath id="canvas"><rect x="0" y="0" width="338" height="158" rx="20"/></clipPath>

</defs>
<g clip-path="url(#canvas)">
  <g>
    <rect x="0" y="0" width="338" height="158" rx="0" fill="#0E1722"/>
    <g>
      <text x="13.52" y="41.08" text-anchor="start" dominant-baseline="central" font-family="ui-rounded, system-ui, sans-serif" font-size="34" font-weight="600" fill="#EAF2FA">22°</text>
    </g>
    <g>
      <text x="324.48" y="34.76" text-anchor="end" dominant-baseline="central" font-family="system-ui, -apple-system, sans-serif" font-size="11" font-weight="500" fill="#8FA9C4">H 24°  L 16°</text>
    </g>
    <g>
      <text x="324.48" y="56.88" text-anchor="end" dominant-baseline="central" font-family="system-ui, -apple-system, sans-serif" font-size="11" font-weight="500" fill="#8FA9C4">Partly Cloudy</text>
    </g>
    <g>
      <polygon points="20.28,140.62 47.32,133.91 74.36,120.47 101.40,107.05 128.44,100.33 155.48,86.90 182.52,93.62 209.56,107.05 236.60,120.47 263.64,127.19 290.68,133.91 317.72,140.62 317.72,140.62 20.28,140.62" fill="#64B5F6" fill-opacity="0.25"/>
      <polyline points="20.28,140.62 47.32,133.91 74.36,120.47 101.40,107.05 128.44,100.33 155.48,86.90 182.52,93.62 209.56,107.05 236.60,120.47 263.64,127.19 290.68,133.91 317.72,140.62" fill="none" stroke="#64B5F6" stroke-width="2.50" stroke-linecap="round" stroke-linejoin="round"/>
    </g>
  </g>
</g>
</svg>